<svg xmlns="http://www.w3.org/2000/svg" xmlns:xlink="http://www.w3.org/1999/xlink" width="500" zoomAndPan="magnify" viewBox="0 0 375 374.999991" height="500" preserveAspectRatio="xMidYMid meet" version="1.0"><defs><g/><clipPath id="9cc46a3188"><path d="M 37 176 L 54 176 L 54 195 L 37 195 Z M 37 176 " clip-rule="nonzero"/></clipPath><clipPath id="5450a7d7c3"><path d="M 37.5 176.246094 L 49.71875 172.609375 L 55.714844 192.734375 L 43.492188 196.375 Z M 37.5 176.246094 " clip-rule="nonzero"/></clipPath><clipPath id="8b7f3bbea6"><path d="M 37.5 176.246094 L 49.71875 172.609375 L 55.714844 192.734375 L 43.492188 196.375 Z M 37.5 176.246094 " clip-rule="nonzero"/></clipPath><clipPath id="04684ebeb8"><path d="M 335 140 L 360 140 L 360 166 L 335 166 Z M 335 140 " clip-rule="nonzero"/></clipPath><clipPath id="1c8ef1d010"><path d="M 334.347656 164.296875 L 336.726562 140.417969 L 360.609375 142.800781 L 358.226562 166.679688 Z M 334.347656 164.296875 " clip-rule="nonzero"/></clipPath><clipPath id="9e7fb4b1a3"><path d="M 334.347656 164.296875 L 336.726562 140.417969 L 360.609375 142.800781 L 358.226562 166.679688 Z M 334.347656 164.296875 " clip-rule="nonzero"/></clipPath><clipPath id="20c7c42752"><path d="M 161 127.925781 L 202 127.925781 L 202 160 L 161 160 Z M 161 127.925781 " clip-rule="nonzero"/></clipPath></defs><g fill="#3b3b3b" fill-opacity="1"><g transform="translate(15.317816, 201.749987)"><g><path d="M 43.25 -42.671875 C 44.34375 -41.304688 45.15625 -39.453125 45.6875 -37.109375 C 45.914062 -36.003906 46.09375 -34.769531 46.21875 -33.40625 C 46.351562 -32.050781 46.421875 -30.597656 46.421875 -29.046875 L 46.421875 -17.78125 C 46.421875 -16.195312 46.351562 -14.722656 46.21875 -13.359375 C 46.09375 -11.992188 45.914062 -10.757812 45.6875 -9.65625 C 45.15625 -7.34375 44.34375 -5.46875 43.25 -4.03125 C 42.070312 -2.550781 40.59375 -1.507812 38.8125 -0.90625 C 36.988281 -0.257812 34.847656 0.0625 32.390625 0.0625 L 18.53125 0.0625 C 16.03125 0.0625 13.90625 -0.257812 12.15625 -0.90625 C 10.375 -1.507812 8.898438 -2.570312 7.734375 -4.09375 C 6.597656 -5.570312 5.78125 -7.425781 5.28125 -9.65625 C 5.019531 -10.757812 4.832031 -11.992188 4.71875 -13.359375 C 4.601562 -14.722656 4.546875 -16.195312 4.546875 -17.78125 L 4.546875 -29.046875 C 4.546875 -32.296875 4.789062 -34.984375 5.28125 -37.109375 C 5.78125 -39.347656 6.597656 -41.203125 7.734375 -42.671875 C 8.898438 -44.117188 10.375 -45.179688 12.15625 -45.859375 C 13.976562 -46.503906 16.101562 -46.828125 18.53125 -46.828125 L 32.390625 -46.828125 C 34.847656 -46.828125 36.988281 -46.503906 38.8125 -45.859375 C 40.59375 -45.179688 42.070312 -44.117188 43.25 -42.671875 Z M 37.96875 -30 C 37.96875 -30.832031 37.945312 -31.597656 37.90625 -32.296875 C 37.863281 -33.003906 37.785156 -33.640625 37.671875 -34.203125 C 37.523438 -35.265625 37.203125 -36.117188 36.703125 -36.765625 C 36.328125 -37.296875 35.757812 -37.710938 35 -38.015625 C 34.625 -38.128906 34.195312 -38.222656 33.71875 -38.296875 C 33.25 -38.378906 32.710938 -38.421875 32.109375 -38.421875 L 18.8125 -38.421875 C 18.207031 -38.421875 17.664062 -38.378906 17.1875 -38.296875 C 16.71875 -38.222656 16.289062 -38.128906 15.90625 -38.015625 C 15.15625 -37.710938 14.585938 -37.296875 14.203125 -36.765625 C 13.972656 -36.460938 13.78125 -36.09375 13.625 -35.65625 C 13.476562 -35.21875 13.347656 -34.734375 13.234375 -34.203125 C 13.160156 -33.640625 13.09375 -33.003906 13.03125 -32.296875 C 12.976562 -31.597656 12.953125 -30.832031 12.953125 -30 L 12.953125 -16.765625 C 12.953125 -15.929688 12.976562 -15.160156 13.03125 -14.453125 C 13.09375 -13.753906 13.160156 -13.125 13.234375 -12.5625 C 13.347656 -12.0625 13.476562 -11.59375 13.625 -11.15625 C 13.78125 -10.726562 13.972656 -10.363281 14.203125 -10.0625 C 14.585938 -9.457031 15.15625 -9.039062 15.90625 -8.8125 C 16.59375 -8.539062 17.5625 -8.40625 18.8125 -8.40625 L 32.109375 -8.40625 C 33.359375 -8.40625 34.320312 -8.539062 35 -8.8125 C 35.757812 -9.039062 36.328125 -9.457031 36.703125 -10.0625 C 37.160156 -10.625 37.484375 -11.457031 37.671875 -12.5625 C 37.785156 -13.125 37.863281 -13.753906 37.90625 -14.453125 C 37.945312 -15.160156 37.96875 -15.929688 37.96875 -16.765625 Z M 37.96875 -30 "/></g></g></g><g fill="#3b3b3b" fill-opacity="1"><g transform="translate(69.130335, 201.749987)"><g><path d="M 32.390625 -46.828125 C 36.253906 -46.828125 39.039062 -45.613281 40.75 -43.1875 C 42.414062 -40.914062 43.25 -37.488281 43.25 -32.90625 L 43.25 -33.25 C 43.25 -28.738281 42.414062 -25.304688 40.75 -22.953125 C 39.039062 -20.566406 36.253906 -19.375 32.390625 -19.375 L 12.953125 -19.328125 L 12.953125 -1.9375 C 12.953125 -1.0625 12.742188 -0.507812 12.328125 -0.28125 C 11.910156 -0.0507812 11.585938 0.0625 11.359375 0.0625 L 6.140625 0.0625 C 5.910156 0.0625 5.585938 -0.0507812 5.171875 -0.28125 C 4.753906 -0.507812 4.546875 -1.0625 4.546875 -1.9375 L 4.546875 -25.796875 C 4.546875 -26.671875 4.753906 -27.210938 5.171875 -27.421875 C 5.585938 -27.628906 5.910156 -27.734375 6.140625 -27.734375 L 30.921875 -27.734375 C 32.359375 -27.734375 33.359375 -28.148438 33.921875 -28.984375 C 34.523438 -29.816406 34.828125 -31.179688 34.828125 -33.078125 C 34.828125 -34.972656 34.523438 -36.335938 33.921875 -37.171875 C 33.359375 -38.003906 32.359375 -38.421875 30.921875 -38.421875 L 6.140625 -38.421875 C 5.910156 -38.421875 5.585938 -38.523438 5.171875 -38.734375 C 4.753906 -38.941406 4.546875 -39.476562 4.546875 -40.34375 L 4.546875 -44.84375 C 4.546875 -45.75 4.753906 -46.304688 5.171875 -46.515625 C 5.585938 -46.722656 5.910156 -46.828125 6.140625 -46.828125 Z M 32.390625 -46.828125 "/></g></g></g><g fill="#3b3b3b" fill-opacity="1"><g transform="translate(119.760699, 201.749987)"><g><path d="M 43.8125 -46.828125 C 44.082031 -46.828125 44.425781 -46.722656 44.84375 -46.515625 C 45.257812 -46.304688 45.46875 -45.765625 45.46875 -44.890625 L 45.46875 -40.46875 C 45.46875 -39.519531 45.257812 -38.941406 44.84375 -38.734375 C 44.425781 -38.523438 44.082031 -38.421875 43.8125 -38.421875 L 29.203125 -38.421875 L 29.203125 -1.9375 C 29.203125 -1.0625 29.003906 -0.519531 28.609375 -0.3125 C 28.210938 -0.101562 27.882812 0 27.625 0 L 22.390625 0 C 22.160156 0 21.835938 -0.101562 21.421875 -0.3125 C 21.003906 -0.519531 20.796875 -1.0625 20.796875 -1.9375 L 20.796875 -38.421875 L 6.1875 -38.421875 C 5.925781 -38.421875 5.585938 -38.523438 5.171875 -38.734375 C 4.753906 -38.941406 4.546875 -39.519531 4.546875 -40.46875 L 4.546875 -44.890625 C 4.546875 -45.765625 4.753906 -46.304688 5.171875 -46.515625 C 5.585938 -46.722656 5.925781 -46.828125 6.1875 -46.828125 Z M 43.8125 -46.828125 "/></g></g></g><g fill="#3b3b3b" fill-opacity="1"><g transform="translate(172.607211, 201.749987)"><g><path d="M 11.359375 -46.828125 C 11.585938 -46.828125 11.910156 -46.710938 12.328125 -46.484375 C 12.742188 -46.253906 12.953125 -45.707031 12.953125 -44.84375 L 12.953125 -1.9375 C 12.953125 -1.0625 12.742188 -0.507812 12.328125 -0.28125 C 11.910156 -0.0507812 11.585938 0.0625 11.359375 0.0625 L 6.140625 0.0625 C 5.910156 0.0625 5.585938 -0.0507812 5.171875 -0.28125 C 4.753906 -0.507812 4.546875 -1.0625 4.546875 -1.9375 L 4.546875 -44.84375 C 4.546875 -45.707031 4.753906 -46.253906 5.171875 -46.484375 C 5.585938 -46.710938 5.910156 -46.828125 6.140625 -46.828125 Z M 11.359375 -46.828125 "/></g></g></g><g fill="#805ec6" fill-opacity="1"><g transform="translate(192.950617, 201.749987)"><g><path d="M 49.84375 -47.453125 C 50.257812 -47.453125 50.5625 -47.359375 50.75 -47.171875 C 50.9375 -46.984375 51.050781 -46.8125 51.09375 -46.65625 C 51.207031 -46.28125 51.148438 -45.804688 50.921875 -45.234375 L 35.125 -5.90625 C 34.25 -3.820312 33.414062 -2.441406 32.625 -1.765625 C 32.425781 -1.578125 32.140625 -1.382812 31.765625 -1.1875 C 30.585938 -0.351562 29.28125 0.0625 27.84375 0.0625 C 26.289062 0.0625 24.878906 -0.410156 23.609375 -1.359375 C 22.335938 -2.304688 21.492188 -3.539062 21.078125 -5.0625 C 21.046875 -5.175781 20.988281 -5.304688 20.90625 -5.453125 C 20.832031 -5.609375 20.757812 -5.757812 20.6875 -5.90625 L 4.78125 -45.234375 C 4.550781 -45.804688 4.492188 -46.28125 4.609375 -46.65625 C 4.640625 -46.769531 4.738281 -46.929688 4.90625 -47.140625 C 5.082031 -47.347656 5.378906 -47.453125 5.796875 -47.453125 L 11.9375 -47.453125 C 12.769531 -47.453125 13.300781 -47.054688 13.53125 -46.265625 L 27.671875 -11.078125 C 27.710938 -11.046875 27.734375 -11.007812 27.734375 -10.96875 C 27.734375 -10.925781 27.734375 -10.90625 27.734375 -10.90625 L 27.953125 -10.96875 C 27.953125 -10.96875 27.960938 -10.976562 27.984375 -11 C 28.003906 -11.019531 28.015625 -11.046875 28.015625 -11.078125 L 41.9375 -46.265625 C 42.28125 -47.054688 42.832031 -47.453125 43.59375 -47.453125 Z M 49.84375 -47.453125 "/></g></g></g><g fill="#805ec6" fill-opacity="1"><g transform="translate(251.479543, 201.749987)"><g><path d="M 43.25 -42.671875 C 44.34375 -41.304688 45.15625 -39.453125 45.6875 -37.109375 C 45.914062 -36.003906 46.09375 -34.769531 46.21875 -33.40625 C 46.351562 -32.050781 46.421875 -30.597656 46.421875 -29.046875 L 46.421875 -17.78125 C 46.421875 -16.195312 46.351562 -14.722656 46.21875 -13.359375 C 46.09375 -11.992188 45.914062 -10.757812 45.6875 -9.65625 C 45.15625 -7.34375 44.34375 -5.46875 43.25 -4.03125 C 42.070312 -2.550781 40.59375 -1.507812 38.8125 -0.90625 C 36.988281 -0.257812 34.847656 0.0625 32.390625 0.0625 L 18.53125 0.0625 C 16.03125 0.0625 13.90625 -0.257812 12.15625 -0.90625 C 10.375 -1.507812 8.898438 -2.570312 7.734375 -4.09375 C 6.597656 -5.570312 5.78125 -7.425781 5.28125 -9.65625 C 5.019531 -10.757812 4.832031 -11.992188 4.71875 -13.359375 C 4.601562 -14.722656 4.546875 -16.195312 4.546875 -17.78125 L 4.546875 -29.046875 C 4.546875 -32.296875 4.789062 -34.984375 5.28125 -37.109375 C 5.78125 -39.347656 6.597656 -41.203125 7.734375 -42.671875 C 8.898438 -44.117188 10.375 -45.179688 12.15625 -45.859375 C 13.976562 -46.503906 16.101562 -46.828125 18.53125 -46.828125 L 32.390625 -46.828125 C 34.847656 -46.828125 36.988281 -46.503906 38.8125 -45.859375 C 40.59375 -45.179688 42.070312 -44.117188 43.25 -42.671875 Z M 37.96875 -30 C 37.96875 -30.832031 37.945312 -31.597656 37.90625 -32.296875 C 37.863281 -33.003906 37.785156 -33.640625 37.671875 -34.203125 C 37.523438 -35.265625 37.203125 -36.117188 36.703125 -36.765625 C 36.328125 -37.296875 35.757812 -37.710938 35 -38.015625 C 34.625 -38.128906 34.195312 -38.222656 33.71875 -38.296875 C 33.25 -38.378906 32.710938 -38.421875 32.109375 -38.421875 L 18.8125 -38.421875 C 18.207031 -38.421875 17.664062 -38.378906 17.1875 -38.296875 C 16.71875 -38.222656 16.289062 -38.128906 15.90625 -38.015625 C 15.15625 -37.710938 14.585938 -37.296875 14.203125 -36.765625 C 13.972656 -36.460938 13.78125 -36.09375 13.625 -35.65625 C 13.476562 -35.21875 13.347656 -34.734375 13.234375 -34.203125 C 13.160156 -33.640625 13.09375 -33.003906 13.03125 -32.296875 C 12.976562 -31.597656 12.953125 -30.832031 12.953125 -30 L 12.953125 -16.765625 C 12.953125 -15.929688 12.976562 -15.160156 13.03125 -14.453125 C 13.09375 -13.753906 13.160156 -13.125 13.234375 -12.5625 C 13.347656 -12.0625 13.476562 -11.59375 13.625 -11.15625 C 13.78125 -10.726562 13.972656 -10.363281 14.203125 -10.0625 C 14.585938 -9.457031 15.15625 -9.039062 15.90625 -8.8125 C 16.59375 -8.539062 17.5625 -8.40625 18.8125 -8.40625 L 32.109375 -8.40625 C 33.359375 -8.40625 34.320312 -8.539062 35 -8.8125 C 35.757812 -9.039062 36.328125 -9.457031 36.703125 -10.0625 C 37.160156 -10.625 37.484375 -11.457031 37.671875 -12.5625 C 37.785156 -13.125 37.863281 -13.753906 37.90625 -14.453125 C 37.945312 -15.160156 37.96875 -15.929688 37.96875 -16.765625 Z M 37.96875 -30 "/></g></g></g><g fill="#805ec6" fill-opacity="1"><g transform="translate(305.292063, 201.749987)"><g><path d="M 31.375 -24.265625 L 46.59375 -2.5 C 46.9375 -2.039062 47.050781 -1.566406 46.9375 -1.078125 C 46.863281 -0.359375 46.445312 0 45.6875 0 L 39.09375 0 C 38.601562 0 38.207031 -0.078125 37.90625 -0.234375 C 37.75 -0.335938 37.601562 -0.46875 37.46875 -0.625 C 37.34375 -0.78125 37.222656 -0.96875 37.109375 -1.1875 L 25.625 -17.453125 L 14.09375 -1.140625 C 13.863281 -0.753906 13.597656 -0.46875 13.296875 -0.28125 C 13.066406 -0.09375 12.671875 0 12.109375 0 L 5.859375 0 C 5.140625 0 4.722656 -0.359375 4.609375 -1.078125 C 4.523438 -1.648438 4.65625 -2.125 5 -2.5 L 20.625 -24.609375 L 6.53125 -44.328125 C 6.226562 -44.742188 6.113281 -45.21875 6.1875 -45.75 C 6.269531 -46.46875 6.6875 -46.828125 7.4375 -46.828125 L 14.03125 -46.828125 C 14.53125 -46.828125 14.929688 -46.734375 15.234375 -46.546875 C 15.566406 -46.273438 15.832031 -45.988281 16.03125 -45.6875 L 26.078125 -31.140625 L 36.765625 -45.6875 C 36.953125 -45.988281 37.21875 -46.273438 37.5625 -46.546875 C 37.863281 -46.734375 38.257812 -46.828125 38.75 -46.828125 L 45 -46.828125 C 45.757812 -46.828125 46.195312 -46.46875 46.3125 -45.75 C 46.382812 -45.175781 46.253906 -44.703125 45.921875 -44.328125 Z M 31.375 -24.265625 "/></g></g></g><g clip-path="url(#9cc46a3188)"><g clip-path="url(#5450a7d7c3)"><g clip-path="url(#8b7f3bbea6)"><path fill="#3b3b3b" d="M 51.042969 194.210938 C 50.984375 194.226562 50.921875 194.234375 50.859375 194.230469 C 50.726562 194.21875 50.601562 194.15625 50.515625 194.050781 L 45.792969 188.417969 L 43.285156 192.726562 C 43.183594 192.898438 42.992188 192.992188 42.792969 192.96875 C 42.597656 192.945312 42.429688 192.808594 42.375 192.617188 L 37.664062 176.796875 C 37.609375 176.605469 37.667969 176.398438 37.820312 176.269531 C 37.972656 176.144531 38.1875 176.117188 38.367188 176.207031 L 53.070312 183.519531 C 53.246094 183.605469 53.355469 183.792969 53.347656 183.988281 C 53.335938 184.1875 53.214844 184.359375 53.03125 184.433594 L 48.273438 186.304688 L 53.101562 191.816406 C 53.1875 191.914062 53.230469 192.046875 53.222656 192.179688 C 53.214844 192.3125 53.152344 192.433594 53.050781 192.523438 L 51.230469 194.109375 C 51.171875 194.15625 51.109375 194.191406 51.042969 194.210938 Z M 51.042969 194.210938 " fill-opacity="1" fill-rule="nonzero"/></g></g></g><g clip-path="url(#04684ebeb8)"><g clip-path="url(#1c8ef1d010)"><g clip-path="url(#9e7fb4b1a3)"><path fill="#805ec6" d="M 339.890625 141.132812 L 339.238281 142.035156 C 339.113281 142.203125 339.039062 142.433594 339.015625 142.671875 C 338.992188 142.90625 339.019531 143.148438 339.105469 143.339844 L 339.570312 144.355469 C 339.742188 144.734375 340.226562 145.078125 340.640625 145.117188 L 341.773438 145.230469 C 341.894531 145.242188 342.027344 145.230469 342.164062 145.195312 L 345.15625 151.847656 C 345.050781 151.925781 344.957031 152.007812 344.886719 152.101562 L 342.921875 154.785156 C 342.878906 154.84375 342.84375 154.90625 342.8125 154.976562 L 340.171875 154.714844 C 340.15625 154.613281 340.128906 154.515625 340.089844 154.429688 L 339.625 153.414062 C 339.453125 153.035156 338.972656 152.691406 338.554688 152.648438 L 337.425781 152.535156 C 337.007812 152.492188 336.46875 152.734375 336.226562 153.074219 L 335.570312 153.976562 C 335.445312 154.148438 335.371094 154.378906 335.347656 154.613281 C 335.324219 154.851562 335.351562 155.089844 335.4375 155.28125 L 335.902344 156.296875 C 336.078125 156.675781 336.558594 157.019531 336.972656 157.0625 L 338.105469 157.175781 C 338.519531 157.214844 339.058594 156.972656 339.304688 156.636719 L 339.960938 155.730469 C 340.015625 155.65625 340.058594 155.566406 340.09375 155.46875 L 342.699219 155.726562 C 342.714844 155.855469 342.742188 155.976562 342.789062 156.082031 L 344.191406 159.101562 C 344.367188 159.480469 344.847656 159.824219 345.265625 159.863281 L 348.660156 160.203125 C 348.738281 160.210938 348.820312 160.207031 348.90625 160.195312 L 349.574219 161.679688 C 349.5 161.742188 349.429688 161.8125 349.375 161.882812 L 348.722656 162.789062 C 348.597656 162.957031 348.523438 163.1875 348.5 163.425781 C 348.476562 163.660156 348.503906 163.902344 348.589844 164.089844 L 349.054688 165.109375 C 349.226562 165.488281 349.710938 165.832031 350.125 165.871094 L 351.253906 165.984375 C 351.671875 166.027344 352.210938 165.785156 352.457031 165.445312 L 353.109375 164.542969 C 353.234375 164.375 353.308594 164.144531 353.332031 163.90625 C 353.355469 163.671875 353.328125 163.429688 353.242188 163.238281 L 352.777344 162.222656 C 352.601562 161.84375 352.121094 161.5 351.707031 161.460938 L 350.574219 161.347656 C 350.476562 161.335938 350.371094 161.34375 350.265625 161.363281 L 349.609375 159.910156 C 349.710938 159.835938 349.796875 159.753906 349.859375 159.667969 L 351.828125 156.984375 C 351.898438 156.890625 351.949219 156.777344 351.988281 156.65625 L 354.59375 156.914062 C 354.609375 157.015625 354.636719 157.113281 354.675781 157.199219 L 355.136719 158.214844 C 355.3125 158.59375 355.792969 158.9375 356.207031 158.980469 L 357.339844 159.09375 C 357.753906 159.132812 358.292969 158.890625 358.539062 158.554688 L 359.195312 157.648438 C 359.316406 157.480469 359.394531 157.25 359.417969 157.015625 C 359.441406 156.777344 359.410156 156.535156 359.324219 156.347656 L 358.859375 155.332031 C 358.6875 154.953125 358.207031 154.609375 357.789062 154.566406 L 356.660156 154.453125 C 356.246094 154.414062 355.703125 154.65625 355.460938 154.992188 L 354.804688 155.894531 C 354.75 155.972656 354.703125 156.0625 354.667969 156.160156 L 352.027344 155.894531 C 352.007812 155.824219 351.988281 155.75 351.957031 155.6875 L 350.558594 152.667969 C 350.519531 152.585938 350.464844 152.507812 350.402344 152.429688 L 353.59375 146.570312 C 353.671875 146.597656 353.746094 146.617188 353.820312 146.625 L 354.953125 146.738281 C 355.367188 146.777344 355.90625 146.535156 356.152344 146.199219 L 356.808594 145.292969 C 356.929688 145.125 357.007812 144.894531 357.03125 144.660156 C 357.054688 144.421875 357.023438 144.179688 356.9375 143.992188 L 356.472656 142.976562 C 356.300781 142.597656 355.820312 142.253906 355.40625 142.210938 L 354.273438 142.097656 C 353.859375 142.058594 353.320312 142.300781 353.074219 142.636719 L 352.417969 143.539062 C 352.296875 143.710938 352.21875 143.941406 352.195312 144.175781 C 352.171875 144.414062 352.203125 144.652344 352.289062 144.84375 L 352.753906 145.859375 C 352.800781 145.964844 352.871094 146.0625 352.957031 146.15625 L 349.785156 151.980469 C 349.683594 151.941406 349.582031 151.914062 349.484375 151.90625 L 346.089844 151.566406 C 346.019531 151.558594 345.941406 151.5625 345.863281 151.574219 L 342.835938 144.84375 C 342.886719 144.792969 342.933594 144.746094 342.972656 144.695312 L 343.625 143.789062 C 343.75 143.621094 343.824219 143.390625 343.847656 143.152344 C 343.871094 142.917969 343.84375 142.675781 343.757812 142.484375 L 343.292969 141.46875 C 343.117188 141.089844 342.636719 140.746094 342.222656 140.707031 L 341.089844 140.59375 C 340.675781 140.550781 340.136719 140.792969 339.890625 141.132812 Z M 339.890625 141.132812 " fill-opacity="1" fill-rule="nonzero"/></g></g></g><g clip-path="url(#20c7c42752)"><path fill="#3b3b3b" d="M 199.707031 139.507812 C 199.15625 139.507812 198.683594 139.3125 198.292969 138.921875 C 188.953125 129.582031 173.753906 129.582031 164.410156 138.921875 C 164.222656 139.109375 164.007812 139.25 163.761719 139.351562 C 163.519531 139.453125 163.265625 139.5 163 139.5 C 162.738281 139.5 162.484375 139.449219 162.242188 139.347656 C 161.996094 139.246094 161.78125 139.101562 161.59375 138.914062 C 161.410156 138.730469 161.265625 138.511719 161.164062 138.269531 C 161.0625 138.027344 161.011719 137.773438 161.011719 137.507812 C 161.011719 137.246094 161.058594 136.992188 161.160156 136.746094 C 161.257812 136.503906 161.402344 136.289062 161.585938 136.101562 C 166.863281 130.828125 173.878906 127.925781 181.351562 127.925781 C 188.828125 127.925781 195.847656 130.828125 201.117188 136.101562 C 201.402344 136.386719 201.585938 136.726562 201.664062 137.121094 C 201.742188 137.519531 201.707031 137.902344 201.550781 138.277344 C 201.394531 138.648438 201.152344 138.949219 200.816406 139.171875 C 200.480469 139.394531 200.109375 139.507812 199.707031 139.507812 Z M 195.472656 144.570312 C 195.660156 144.382812 195.804688 144.167969 195.90625 143.921875 C 196.007812 143.679688 196.058594 143.421875 196.058594 143.160156 C 196.058594 142.894531 196.007812 142.640625 195.90625 142.394531 C 195.804688 142.148438 195.660156 141.933594 195.472656 141.746094 C 187.6875 133.960938 175.023438 133.960938 167.238281 141.746094 C 167.050781 141.933594 166.910156 142.148438 166.808594 142.394531 C 166.710938 142.636719 166.660156 142.890625 166.660156 143.15625 C 166.660156 143.417969 166.710938 143.671875 166.8125 143.917969 C 166.914062 144.160156 167.058594 144.375 167.246094 144.5625 C 167.433594 144.75 167.648438 144.890625 167.890625 144.992188 C 168.132812 145.09375 168.386719 145.144531 168.652344 145.148438 C 168.914062 145.148438 169.167969 145.097656 169.414062 145 C 169.65625 144.898438 169.875 144.757812 170.0625 144.570312 C 176.289062 138.34375 186.421875 138.34375 192.648438 144.570312 C 192.835938 144.757812 193.050781 144.902344 193.296875 145.003906 C 193.542969 145.105469 193.796875 145.15625 194.0625 145.15625 C 194.328125 145.15625 194.582031 145.105469 194.824219 145.003906 C 195.070312 144.902344 195.285156 144.757812 195.472656 144.570312 Z M 189.824219 150.21875 C 190.011719 150.03125 190.15625 149.816406 190.257812 149.570312 C 190.359375 149.324219 190.410156 149.070312 190.410156 148.804688 C 190.410156 148.542969 190.359375 148.285156 190.257812 148.042969 C 190.15625 147.796875 190.011719 147.582031 189.824219 147.394531 C 185.15625 142.722656 177.554688 142.722656 172.882812 147.394531 C 172.703125 147.582031 172.5625 147.796875 172.46875 148.042969 C 172.371094 148.285156 172.324219 148.535156 172.324219 148.796875 C 172.328125 149.058594 172.378906 149.3125 172.480469 149.554688 C 172.582031 149.792969 172.722656 150.007812 172.910156 150.191406 C 173.09375 150.378906 173.308594 150.519531 173.550781 150.621094 C 173.789062 150.722656 174.042969 150.773438 174.304688 150.777344 C 174.566406 150.78125 174.816406 150.734375 175.058594 150.636719 C 175.304688 150.539062 175.519531 150.398438 175.707031 150.21875 C 176.078125 149.847656 176.484375 149.515625 176.917969 149.226562 C 177.355469 148.9375 177.816406 148.691406 178.300781 148.488281 C 178.785156 148.289062 179.285156 148.136719 179.796875 148.035156 C 180.3125 147.933594 180.832031 147.882812 181.355469 147.882812 C 181.878906 147.882812 182.398438 147.933594 182.914062 148.035156 C 183.425781 148.136719 183.925781 148.289062 184.410156 148.488281 C 184.894531 148.691406 185.355469 148.9375 185.792969 149.226562 C 186.226562 149.515625 186.632812 149.847656 187.003906 150.21875 C 187.191406 150.40625 187.40625 150.550781 187.652344 150.652344 C 187.894531 150.75 188.148438 150.800781 188.414062 150.800781 C 188.679688 150.800781 188.933594 150.75 189.179688 150.652344 C 189.421875 150.550781 189.636719 150.40625 189.824219 150.21875 Z M 184.175781 158.6875 C 184.394531 158.472656 184.582031 158.234375 184.746094 157.972656 C 184.90625 157.714844 185.039062 157.4375 185.136719 157.148438 C 185.234375 156.855469 185.300781 156.558594 185.332031 156.253906 C 185.359375 155.949219 185.355469 155.644531 185.316406 155.339844 C 185.277344 155.035156 185.203125 154.742188 185.09375 154.453125 C 184.988281 154.167969 184.847656 153.894531 184.679688 153.640625 C 184.507812 153.386719 184.3125 153.152344 184.085938 152.945312 C 183.863281 152.734375 183.617188 152.550781 183.355469 152.398438 C 183.089844 152.246094 182.808594 152.125 182.515625 152.035156 C 182.222656 151.945312 181.921875 151.890625 181.617188 151.871094 C 181.308594 151.851562 181.007812 151.863281 180.703125 151.914062 C 180.402344 151.964844 180.109375 152.046875 179.824219 152.164062 C 179.542969 152.28125 179.273438 152.429688 179.027344 152.609375 C 178.777344 152.789062 178.550781 152.992188 178.347656 153.222656 C 178.144531 153.453125 177.972656 153.703125 177.828125 153.972656 C 177.683594 154.242188 177.570312 154.527344 177.492188 154.824219 C 177.414062 155.121094 177.367188 155.421875 177.355469 155.726562 C 177.347656 156.035156 177.371094 156.335938 177.433594 156.636719 C 177.492188 156.9375 177.585938 157.230469 177.710938 157.507812 C 177.835938 157.789062 177.996094 158.050781 178.179688 158.292969 C 178.367188 158.535156 178.578125 158.753906 178.816406 158.949219 C 179.054688 159.144531 179.308594 159.308594 179.585938 159.445312 C 179.859375 159.582031 180.144531 159.683594 180.445312 159.753906 C 180.742188 159.820312 181.046875 159.855469 181.351562 159.855469 C 182.457031 159.855469 183.394531 159.46875 184.175781 158.6875 Z M 184.175781 158.6875 " fill-opacity="1" fill-rule="nonzero"/></g><g fill="#3b3b3b" fill-opacity="1"><g transform="translate(56.585809, 224.129868)"><g><path d="M 0.984375 0 L 0.984375 -1.34375 L 2.4375 -1.34375 L 2.4375 -10.453125 L 0.984375 -10.453125 L 0.984375 -11.796875 L 5.328125 -11.796875 L 5.328125 -10.453125 L 3.890625 -10.453125 L 3.890625 -1.34375 L 5.328125 -1.34375 L 5.328125 0 Z M 0.984375 0 "/></g></g></g><g fill="#3b3b3b" fill-opacity="1"><g transform="translate(75.704265, 224.129868)"><g><path d="M 2.765625 0 L 1.09375 -1.6875 L 1.09375 -10.109375 L 2.765625 -11.796875 L 8.09375 -11.796875 L 9.734375 -10.15625 L 8.796875 -9.21875 L 7.515625 -10.5 L 3.421875 -10.5 L 2.546875 -9.609375 L 2.546875 -2.171875 L 3.421875 -1.296875 L 7.640625 -1.296875 L 8.9375 -2.59375 L 9.875 -1.640625 L 8.203125 0 Z M 2.765625 0 "/></g></g></g><g fill="#3b3b3b" fill-opacity="1"><g transform="translate(98.853753, 224.129868)"><g><path d="M 3.71875 0 L 3.71875 -10.453125 L 0.203125 -10.453125 L 0.203125 -11.796875 L 8.671875 -11.796875 L 8.671875 -10.453125 L 5.171875 -10.453125 L 5.171875 0 Z M 3.71875 0 "/></g></g></g><g fill="#3b3b3b" fill-opacity="1"><g transform="translate(120.531602, 224.129868)"><g/></g></g><g fill="#3b3b3b" fill-opacity="1"><g transform="translate(136.882724, 224.129868)"><g><path d="M 1.40625 0 L 1.40625 -1.34375 L 7.21875 -1.34375 L 8.078125 -2.21875 L 8.078125 -4.578125 L 7.21875 -5.453125 L 2.65625 -5.453125 L 0.984375 -7.125 L 0.984375 -10.109375 L 2.65625 -11.796875 L 8.921875 -11.796875 L 8.921875 -10.453125 L 3.3125 -10.453125 L 2.4375 -9.5625 L 2.453125 -7.609375 L 3.3125 -6.734375 L 7.875 -6.734375 L 9.53125 -5.0625 L 9.53125 -1.6875 L 7.875 0 Z M 1.40625 0 "/></g></g></g><g fill="#3b3b3b" fill-opacity="1"><g transform="translate(160.208173, 224.129868)"><g><path d="M 2.765625 0 L 1.09375 -1.6875 L 1.09375 -10.109375 L 2.765625 -11.796875 L 8.34375 -11.796875 L 10.015625 -10.109375 L 10.015625 -1.6875 L 8.34375 0 Z M 3.421875 -1.296875 L 7.6875 -1.296875 L 8.5625 -2.171875 L 8.5625 -9.609375 L 7.6875 -10.5 L 3.421875 -10.5 L 2.546875 -9.609375 L 2.546875 -2.171875 Z M 3.421875 -1.296875 "/></g></g></g><g fill="#3b3b3b" fill-opacity="1"><g transform="translate(184.109478, 224.129868)"><g><path d="M 1.390625 0 L 1.390625 -11.796875 L 2.84375 -11.796875 L 2.84375 -1.34375 L 8.78125 -1.34375 L 8.78125 0 Z M 1.390625 0 "/></g></g></g><g fill="#3b3b3b" fill-opacity="1"><g transform="translate(205.851305, 224.129868)"><g><path d="M 2.84375 0 L 1.171875 -1.6875 L 1.171875 -11.796875 L 2.625 -11.796875 L 2.625 -2.171875 L 3.5 -1.296875 L 7.75 -1.296875 L 8.625 -2.171875 L 8.625 -11.796875 L 10.078125 -11.796875 L 10.078125 -1.6875 L 8.40625 0 Z M 2.84375 0 "/></g></g></g><g fill="#3b3b3b" fill-opacity="1"><g transform="translate(229.896577, 224.129868)"><g><path d="M 3.71875 0 L 3.71875 -10.453125 L 0.203125 -10.453125 L 0.203125 -11.796875 L 8.671875 -11.796875 L 8.671875 -10.453125 L 5.171875 -10.453125 L 5.171875 0 Z M 3.71875 0 "/></g></g></g><g fill="#3b3b3b" fill-opacity="1"><g transform="translate(251.57442, 224.129868)"><g><path d="M 0.984375 0 L 0.984375 -1.34375 L 2.4375 -1.34375 L 2.4375 -10.453125 L 0.984375 -10.453125 L 0.984375 -11.796875 L 5.328125 -11.796875 L 5.328125 -10.453125 L 3.890625 -10.453125 L 3.890625 -1.34375 L 5.328125 -1.34375 L 5.328125 0 Z M 0.984375 0 "/></g></g></g><g fill="#3b3b3b" fill-opacity="1"><g transform="translate(270.692873, 224.129868)"><g><path d="M 2.765625 0 L 1.09375 -1.6875 L 1.09375 -10.109375 L 2.765625 -11.796875 L 8.34375 -11.796875 L 10.015625 -10.109375 L 10.015625 -1.6875 L 8.34375 0 Z M 3.421875 -1.296875 L 7.6875 -1.296875 L 8.5625 -2.171875 L 8.5625 -9.609375 L 7.6875 -10.5 L 3.421875 -10.5 L 2.546875 -9.609375 L 2.546875 -2.171875 Z M 3.421875 -1.296875 "/></g></g></g><g fill="#3b3b3b" fill-opacity="1"><g transform="translate(294.594177, 224.129868)"><g><path d="M 1.390625 0 L 1.390625 -11.796875 L 3.375 -11.796875 L 8.640625 -2.296875 L 8.640625 -11.796875 L 10.09375 -11.796875 L 10.09375 0 L 8.375 0 L 3.203125 -9.3125 L 2.84375 -9.3125 L 2.84375 0 Z M 1.390625 0 "/></g></g></g></svg>